<?xml version="1.0" encoding="utf-8"?>
<!-- Generator: Adobe Illustrator 28.1.0, SVG Export Plug-In . SVG Version: 6.00 Build 0)  -->
<svg version="1.1" id="Layer_1" xmlns="http://www.w3.org/2000/svg" xmlns:xlink="http://www.w3.org/1999/xlink" x="0px" y="0px"
	 viewBox="0 0 1000 1000" style="enable-background:new 0 0 1000 1000;" xml:space="preserve">
<style type="text/css">
	.st0{fill:url(#SVGID_1_);}
</style>
<linearGradient id="SVGID_1_" gradientUnits="userSpaceOnUse" x1="734.8539" y1="166.3969" x2="349.5989" y2="716.7158" gradientTransform="matrix(1 0 0 -1 0 1002)">
	<stop  offset="0" style="stop-color:#DBB82C"/>
	<stop  offset="0.2917" style="stop-color:#F1B032"/>
	<stop  offset="0.6302" style="stop-color:#ED8F2D"/>
	<stop  offset="1" style="stop-color:#E85F26"/>
</linearGradient>
<path class="st0" d="M621.5,483.1l189.9,107.4c13.9,8,23.8,15.6,29.8,22.7c5.9,6.9,8.9,14.9,8.9,24.1c0,9.4-3,17.6-8.9,24.7
	c-5.9,6.9-15.9,14.3-29.8,22.1L543.8,836c-8.2,4.9-15.9,8.5-22.9,10.7c-7.1,2.2-14,3.3-20.9,3.3c-7.1,0-14-1.1-20.9-3.3
	c-6.8-2.2-14.5-5.8-22.9-10.7L188.7,684.1c-13.7-7.8-23.6-15.2-29.8-22.1c-5.9-7.1-8.9-15.4-8.9-24.7c0-9.1,3-17.2,8.9-24.1
	c6.2-7.1,16.1-14.7,29.8-22.7l189.2-107l27.7,14.8c59.2,31.5,130.2,31.3,189.2-0.6L621.5,483.1z M500,575.1c-7.1,0-14-1.1-20.9-3.3
	c-6.8-2.2-14.5-5.7-22.9-10.4L188.7,409.5c-13.7-8-23.6-15.5-29.8-22.4c-5.9-6.9-8.9-15-8.9-24.4c0-9.4,3-17.5,8.9-24.4
	c6.2-6.9,16.1-14.4,29.8-22.4L456.2,164c8.4-4.7,16.1-8.1,22.9-10.4c6.8-2.5,13.8-3.7,20.9-3.7c6.8,0,13.8,1.2,20.9,3.7
	c7.1,2.2,14.7,5.7,22.9,10.4l267.5,151.8c13.9,8,23.8,15.5,29.8,22.4c5.9,6.9,8.9,15,8.9,24.4c0,9.4-3,17.5-8.9,24.4
	c-5.9,6.9-15.9,14.4-29.8,22.4L543.8,561.4c-8.2,4.7-15.9,8.1-22.9,10.4C513.8,574,506.8,575.1,500,575.1z M500,515.6
	c4.3,0,9.4-1.6,15.1-4.7l259.7-144.8c1.8-0.9,2.7-2,2.7-3.3c0-1.3-0.9-2.5-2.7-3.3L515.1,214.2c-5.7-2.9-10.7-4.3-15.1-4.3
	c-4.6,0-9.6,1.4-15.1,4.3L225.3,359.4c-1.6,0.9-2.4,2-2.4,3.3c0,1.3,0.8,2.5,2.4,3.3l259.7,144.8C490.4,514,495.4,515.6,500,515.6z"
	/>
</svg>
